<svg width="16" height="16" viewBox="0 0 16 16" fill="none" xmlns="http://www.w3.org/2000/svg">
<path d="M3.75747 6.78774H12.2422C12.4063 6.78774 12.5484 6.72781 12.6683 6.60784C12.7882 6.4879 12.8483 6.34588 12.8483 6.18173C12.8483 6.01759 12.7882 5.87563 12.6683 5.75553L8.42595 1.51315C8.30609 1.39335 8.1641 1.33325 7.99985 1.33325C7.8356 1.33325 7.69361 1.39335 7.57364 1.51315L3.33127 5.75553C3.2113 5.8755 3.15137 6.01759 3.15137 6.18173C3.15137 6.34585 3.2113 6.4879 3.33127 6.60784C3.45137 6.72781 3.59336 6.78774 3.75747 6.78774Z" fill="#98A2B3"/>
<path d="M12.2422 9.21216H3.75747C3.59323 9.21216 3.45124 9.27213 3.33127 9.39196C3.2113 9.51193 3.15137 9.65392 3.15137 9.81807C3.15137 9.98221 3.2113 10.1243 3.33127 10.2442L7.57364 14.4865C7.69374 14.6065 7.83574 14.6665 7.99985 14.6665C8.16396 14.6665 8.30609 14.6065 8.42595 14.4865L12.6683 10.2442C12.7882 10.1243 12.8483 9.98221 12.8483 9.81803C12.8483 9.65392 12.7882 9.51193 12.6683 9.39193C12.5485 9.27199 12.4063 9.21216 12.2422 9.21216Z" fill="#98A2B3"/>
</svg>
